<?xml version="1.0" encoding="UTF-8"?>
<svg width="398px" height="191px" viewBox="0 0 398 191" version="1.1" xmlns="http://www.w3.org/2000/svg" xmlns:xlink="http://www.w3.org/1999/xlink">
    <title>lnsm_logo</title>
    <g id="Page-1" stroke="none" stroke-width="1" fill="none" fill-rule="evenodd">
        <g id="lnsm_logo" transform="translate(0.144000, 0.127853)" fill="#FFFFFF">
            <path d="M195.865,50.751147 C185.234,78.661147 168.987,121.280147 159.76,145.461147 C150.533,169.641147 142.921,189.669147 142.844,189.969147 L142.706,190.513147 L150.23,190.449147 L157.754,190.386147 L178.958,134.770147 C203.348,70.798147 206.632,62.187147 220.224,26.559147 C225.715,12.167147 230.207,0.302146954 230.207,0.193146954 C230.207,0.0841469537 226.829,-0.00285304626 222.7,7.16359128e-05 L215.192,0.00514695374 L195.865,50.751147 M71.801,16.039147 C71.501,16.524147 57.475,52.941147 57.475,53.234147 C57.475,53.705147 84.513,53.738147 84.703,53.268147 C84.8,53.028147 84.828,53.028147 84.843,53.268147 C84.858,53.502147 86.407,53.566147 91.769,53.558147 L98.676,53.547147 L100.122,51.215147 L101.569,48.884147 L106.809,48.819147 L112.049,48.754147 L111.922,49.420147 C111.852,49.786147 111.729,50.572147 111.649,51.166147 C111.569,51.761147 111.446,52.545147 111.377,52.908147 L111.25,53.569147 L118.837,53.569147 L126.424,53.569147 L126.425,53.028147 C126.426,52.731147 127.074,44.336147 127.866,34.373147 C128.658,24.410147 129.306,16.167147 129.306,16.055147 C129.306,15.943147 125.156,15.851147 120.083,15.851147 L110.86,15.851147 L97.953,34.362147 C90.854,44.542147 85.003,52.829147 84.951,52.777147 C84.898,52.724147 85.668,50.591147 86.661,48.036147 C87.653,45.481147 88.466,43.194147 88.466,42.954147 C88.466,42.544147 88.098,42.518147 82.311,42.518147 C76.564,42.518147 76.165,42.490147 76.278,42.097147 C76.345,41.866147 78.628,35.953147 81.351,28.958147 C84.075,21.962147 86.303,16.152147 86.303,16.045147 C86.303,15.795147 71.955,15.789147 71.801,16.039147 M134.412,20.969147 C131.836,27.614147 131.551,26.902147 136.782,26.902147 C140.811,26.902147 141.126,26.933147 141.019,27.322147 C140.956,27.554147 138.727,33.384147 136.066,40.278147 C133.405,47.173147 131.228,52.984147 131.228,53.191147 C131.228,53.526147 132.041,53.569147 138.403,53.569147 L145.578,53.569147 L147.738,47.983147 C148.927,44.911147 151.239,38.912147 152.876,34.653147 L155.853,26.908147 L160.427,26.905147 L165,26.902147 L167.093,21.539147 C168.244,18.590147 169.186,16.103147 169.186,16.014147 C169.186,15.924147 161.808,15.852147 152.79,15.8541063 L136.394,15.857147 L134.412,20.969147 M169.944,17.713147 C169.549,18.737147 166.298,27.134147 162.719,36.373147 C159.141,45.613147 156.213,53.261147 156.213,53.370147 C156.213,53.479147 162.8,53.569147 170.85,53.569147 L185.486,53.569147 L186.86,50.025147 C187.616,48.076147 188.489,45.841147 188.8,45.059147 C189.795,42.559147 190.408,42.774147 182.064,42.701147 L174.762,42.638147 L175.363,41.136147 L175.964,39.635147 L181.551,39.635147 L187.139,39.635147 L188.853,35.176147 C191.176,29.135147 191.619,29.785147 185.179,29.785147 L179.79,29.785147 L180.314,28.344147 L180.838,26.902147 L187.948,26.902147 L195.058,26.902147 L197.137,21.531147 C198.281,18.576147 199.216,16.090147 199.216,16.005147 C199.216,15.920147 192.792,15.851147 184.94,15.851147 L170.663,15.851147 L169.944,17.713147 M114.055,33.299147 C113.716,35.661147 113.378,37.890147 113.305,38.253147 L113.172,38.914147 L110.669,38.914147 C109.292,38.914147 108.165,38.861147 108.165,38.797147 C108.165,38.556147 114.48,28.812147 114.575,28.907147 C114.629,28.961147 114.395,30.938147 114.055,33.299147 M85.943,55.742147 C71.563,57.997147 60.275,71.208147 61.832,83.959147 C63.499,97.612147 88.301,98.399147 98.284,85.115147 C100.142,82.642147 104.081,74.153147 104.081,72.621147 C104.081,72.368147 102.223,72.308147 94.532,72.308147 L84.982,72.308147 L83.361,76.468147 C82.469,78.756147 81.739,80.698147 81.739,80.784147 C81.739,80.870147 82.887,80.971147 84.29,81.008147 L86.84,81.076147 L86.155,81.761147 C83.732,84.180147 78.801,84.280147 77.239,81.942147 C75.747,79.708147 77.625,73.484147 80.933,69.702147 C84.134,66.043147 89.907,65.935147 89.907,69.534147 L89.907,70.626147 L97.095,70.626147 L104.283,70.626147 L104.454,69.030147 C105.211,61.964147 102.52,57.899147 95.948,56.178147 C93.819,55.621147 88.261,55.378147 85.943,55.742147 M14.25,56.752147 C3.331,84.856147 0.21,92.948147 0.115,93.392147 L0,93.937147 L6.452,93.873147 L12.905,93.809147 L16.504,84.513147 C18.484,79.400147 20.135,75.248147 20.173,75.287147 C20.212,75.325147 20.833,79.184147 21.554,83.862147 C22.275,88.540147 22.928,92.721147 23.004,93.152147 L23.143,93.937147 L29.903,93.873147 L36.662,93.809147 L43.71,75.671147 C47.587,65.695147 50.824,57.234147 50.904,56.868147 L51.05,56.203147 L44.636,56.267147 L38.223,56.331147 L35.337,63.779147 C33.751,67.875147 32.377,71.304147 32.286,71.399147 C32.194,71.495147 31.761,68.306147 31.322,64.312147 C30.883,60.319147 30.473,56.863147 30.41,56.632147 C30.304,56.242147 29.714,56.211147 22.377,56.211147 L14.46,56.211147 L14.25,56.752147 M46.449,74.481147 C42.565,84.525147 39.336,93.012147 39.273,93.340147 L39.159,93.936147 L46.414,93.873147 L53.669,93.809147 L56.42,86.722147 C66.416,60.965147 68.045,56.727147 68.045,56.483147 C68.045,56.287147 66.031,56.212147 60.778,56.2150607 L53.511,56.219147 L46.449,74.481147 M112.51,56.752147 C112.395,57.049147 109.155,65.412147 105.309,75.337147 C101.462,85.261147 98.315,93.504147 98.315,93.653147 C98.315,94.031147 112.398,93.970147 112.706,93.592147 C112.824,93.447147 114.026,90.464147 115.377,86.962147 C116.728,83.461147 117.886,80.461147 117.95,80.295147 C118.037,80.072147 119.094,79.995147 122.095,79.995147 L126.122,79.995147 L123.617,86.504147 C122.239,90.084147 121.146,93.192147 121.189,93.411147 C121.283,93.897147 134.911,94.052147 135.31,93.572147 C135.559,93.272147 149.727,56.781147 149.727,56.440147 C149.727,56.300147 146.928,56.211147 142.546,56.211147 L135.365,56.211147 L135.012,57.112147 C134.818,57.608147 133.709,60.473147 132.547,63.479147 L130.433,68.944147 L126.372,68.944147 C124.139,68.944147 122.36,68.863147 122.421,68.764147 C122.639,68.404147 127.144,56.640147 127.144,56.429147 C127.144,56.304147 124.072,56.211147 119.931,56.211147 L112.718,56.211147 L112.51,56.752147 M151.395,56.846147 C151.263,57.196147 150.338,59.571147 149.341,62.124147 C148.343,64.678147 147.606,66.895147 147.702,67.050147 C147.829,67.255147 148.744,67.297147 151.024,67.201147 C152.755,67.129147 154.67,67.140147 155.281,67.226147 L156.39,67.383147 L151.377,80.355147 C148.62,87.491147 146.364,93.410147 146.364,93.509147 C146.364,93.608147 149.634,93.687147 153.631,93.6842297 L160.898,93.680147 L165.943,80.573147 C168.718,73.364147 171.096,67.376147 171.228,67.266147 C171.361,67.156147 173.375,67.110147 175.705,67.162147 C178.886,67.234147 180.002,67.184147 180.183,66.960147 C180.463,66.615147 184.321,56.819147 184.321,56.454147 C184.321,56.293147 178.831,56.211147 167.979,56.211147 L151.637,56.211147 L151.395,56.846147 M207.911,86.662147 C207.354,90.328147 206.899,93.413147 206.900993,93.516147 C206.903,93.620147 208.157,93.674147 209.689,93.636147 L212.474,93.569147 L214.176,90.748147 C215.111,89.196147 215.902,87.953147 215.932,87.985147 C215.963,88.017147 215.85,88.854147 215.682,89.845147 C215.513,90.836147 215.306,92.106147 215.221,92.668147 L215.067,93.689147 L217.772,93.681147 L220.478,93.673147 L224.442,87.265147 C229.342,79.342147 229.2,79.960147 226.107,80.047147 L223.653,80.115147 L221.972,83.065147 C221.048,84.688147 220.265,85.985147 220.233,85.948147 C220.201,85.911147 220.373,84.800147 220.616,83.479147 C221.311,79.695147 221.467,79.995147 218.807,79.995147 L216.537,79.995147 L215.099,82.578147 C214.308,83.998147 213.556,85.322147 213.428,85.521147 C213.299,85.719147 213.399,84.962147 213.65,83.839147 C213.9,82.716147 214.175,81.392147 214.259,80.896147 L214.413,79.995147 L211.669,79.995147 L208.925,79.995147 L207.911,86.662147 M229.624,80.207147 C229.261,80.794147 224.682,92.900147 224.682,93.272147 C224.682,93.667147 224.915,93.699147 227.35,93.637147 L230.018,93.569147 L232.515,87.116147 C233.888,83.566147 235.012,80.512147 235.012,80.329147 C235.012,79.943147 229.859,79.827147 229.624,80.207147 M235.913,81.763147 C235.027,84.128147 235.01,84.079147 236.694,84.079147 C238.45,84.079147 238.473,83.628147 236.454,88.867147 C235.529,91.267147 234.772,93.334147 234.772,93.460147 C234.772,93.592147 235.926,93.689147 237.49,93.689147 L240.208,93.689147 L242.022,88.944147 L243.835,84.199147 L245.516,84.129147 L247.196,84.060147 L247.831,82.442147 C248.876,79.777147 249.348,79.995147 242.52,79.998147 L236.574,80.000147 L235.913,81.763147 M250.068,80.175147 C249.719,80.756147 245.102,92.940147 245.102,93.279147 C245.102,93.640147 245.413,93.689147 247.731,93.689147 L250.36,93.689147 L251.275,91.287147 L252.189,88.885147 L253.451,88.884147 C254.144,88.884147 254.712,88.931147 254.712,88.989147 C254.712,89.046147 254.388,89.936147 253.991,90.965147 C252.897,93.808147 252.814,93.689147 255.887,93.689147 C258.158,93.689147 258.526,93.633147 258.665,93.268147 C258.754,93.037147 259.9,90.080147 261.213,86.696147 C262.526,83.313147 263.601,80.421147 263.601,80.270147 C263.601,80.080147 262.768,79.996147 260.898,79.997147 L258.195,79.999147 L257.323,82.339147 L256.451,84.680147 L255.221,84.752147 C253.773,84.838147 253.784,84.888147 254.712,82.478147 C255.108,81.449147 255.433,80.469147 255.433,80.301147 C255.433,79.961147 250.269,79.840147 250.068,80.175147 M213.365,96.225147 C204.212,97.882147 197.557,105.177147 198.067,112.994147 C198.353,117.362147 200.99,119.294147 209.094,121.074147 C212.369,121.793147 212.959,122.398147 211.729,123.775147 C210.113,125.583147 206.05,124.591147 206.112,122.404147 L206.136,121.557147 L199.425,121.557147 C191.575,121.557147 192.37,121.151147 192.37,125.160147 C192.37,131.380147 195.959,134.169147 204.622,134.680147 C215.914,135.346147 224.619,130.138147 226.86,121.375147 C228.617,114.504147 225.968,111.434147 216.546,109.425147 C212.889,108.645147 212.082,108.057147 213.002,106.845147 C214.352,105.068147 217.475,105.648147 217.475,107.676147 L217.475,108.343147 L224.201,108.343147 C227.901,108.343147 230.936,108.262147 230.945,108.163147 C230.955,108.064147 231.046,107.118147 231.149,106.061147 C231.847,98.898147 228.031,95.842147 218.436,95.8807786 C216.652,95.888147 214.37,96.043147 213.365,96.225147 M238.05,96.515147 C237.742,97.014147 223.721,133.399147 223.721,133.700147 C223.721,134.002147 225.711,134.049147 238.315,134.047207 L252.91,134.045147 L254.892,128.882147 C255.982,126.043147 256.874,123.557147 256.874,123.359147 C256.874,123.046147 255.903,122.998147 249.558,122.998147 L242.241,122.998147 L242.806,121.497147 L243.37,119.995147 L248.998,119.931147 L254.625,119.867147 L256.35,115.358147 C257.299,112.878147 258.075,110.664147 258.075,110.437147 C258.075,110.060147 257.616,110.025147 252.67,110.025147 C249.697,110.025147 247.264,109.974147 247.264,109.912147 C247.264,109.850147 247.529,109.201147 247.852,108.470147 L248.439,107.142147 L255.493,107.142147 L262.546,107.142147 L264.515,102.013147 C265.598,99.192147 266.484,96.759147 266.484,96.607147 C266.484,96.289147 238.247,96.197147 238.05,96.515147 M268.233,96.752147 C268.147,96.983147 267.231,99.334147 266.199,101.975147 C265.166,104.617147 264.321,106.912147 264.321,107.075147 C264.321,107.298147 265.427,107.388147 268.737,107.437147 L273.153,107.503147 L268.139,120.476147 C265.381,127.611147 263.123,133.585147 263.122,133.752147 C263.121,133.992147 264.647,134.043147 270.348,133.993147 L277.575,133.929147 L282.681,120.716147 L287.788,107.503147 L292.367,107.437147 C295.713,107.390147 296.978,107.293147 297.064,107.077147 C298.645,103.116147 301.078,96.744147 301.078,96.567147 C301.078,96.080147 268.416,96.264147 268.233,96.752147 M302.351,96.752147 C302.267,96.983147 299.027,105.361147 295.152,115.370147 C291.276,125.379147 288.105,133.676147 288.105,133.808147 C288.105,133.964147 290.653,134.049147 295.294,134.049147 L302.483,134.049147 L303.814,130.626147 C304.546,128.743147 305.73,125.689147 306.444,123.839147 L307.742,120.476147 L311.737,120.410147 C313.935,120.374147 315.733,120.405147 315.733,120.481147 C315.733,120.556147 314.598,123.568147 313.21,127.174147 C311.823,130.780147 310.688,133.804147 310.688,133.894147 C310.688,133.983147 313.94,134.028147 317.914,133.993147 L325.141,133.929147 L325.934,131.887147 C334.553,109.688147 339.517,96.786147 339.517,96.584147 C339.517,96.413147 337.197,96.331147 332.352,96.331147 L325.187,96.331147 L322.941,102.157147 C321.706,105.361147 320.549,108.280147 320.37,108.644147 L320.045,109.304147 L316.061,109.304147 C312.97,109.304147 312.105,109.237147 312.2,109.004147 C313.276,106.348147 316.934,96.735147 316.934,96.564147 C316.934,96.083147 302.527,96.269147 302.351,96.752147 M380.258,136.221147 C371.525,137.595147 365.695,142.574147 364.096,150.025147 C362.783,156.145147 365.377,159.095147 373.741,160.990147 C378.063,161.969147 378.919,162.671147 377.511,164.080147 C375.808,165.783147 371.949,164.767147 371.949,162.616147 L371.949,161.677147 L365.227,161.677147 L358.505,161.677147 L358.32,162.337147 C357.839,164.057147 358.106,167.984147 358.801,169.398147 C360.573,173.007147 364.081,174.595147 370.785,174.824147 C382.366,175.219147 390.516,170.294147 392.727,161.566147 C394.418,154.895147 391.504,151.474147 382.584,149.658147 C378.909,148.911147 378.216,148.488147 378.748,147.320147 C379.663,145.312147 383.24,145.745147 383.24,147.863147 L383.24,148.704147 L389.956,148.704147 L396.672,148.704147 L396.863,147.803147 C397.863,143.089147 396.223,138.933147 392.757,137.400147 C390.096,136.223147 383.937,135.642147 380.258,136.221147 M187.599,136.637147 C187.296,137.127147 173.27,173.533147 173.27,173.829147 C173.27,174.114147 174.303,174.169147 179.614,174.169147 L185.958,174.169147 L187.293,170.746147 C188.027,168.863147 189.663,164.674147 190.929,161.437147 L193.231,155.551147 L193.099,160.476147 C193.026,163.184147 192.9,167.374147 192.819,169.785147 L192.671,174.169147 L195.293,174.169147 L197.914,174.169147 L204.706,165.280147 C208.442,160.392147 211.541,156.392147 211.593,156.392147 C211.708,156.392147 211.317,157.431147 207.768,166.562147 C206.236,170.504147 204.982,173.828147 204.982,173.949147 C204.982,174.078147 207.973,174.169147 212.149,174.169147 L219.316,174.169147 L222.826,165.100147 C224.756,160.112147 227.964,151.831147 229.953,146.696147 C231.943,141.562147 233.571,137.157147 233.571,136.907147 C233.571,136.468147 233.24,136.452147 224.382,136.453147 L215.192,136.454147 L210.027,143.518147 C206.114,148.870147 204.841,150.457147 204.777,150.063147 C204.695,149.567147 205.071,142.220147 205.378,138.313147 L205.525,136.452147 L196.619,136.452147 C191.721,136.452147 187.662,136.535147 187.599,136.637147 M235.484,138.434147 C234.428,141.173147 225.491,164.210147 223.46,169.428147 C222.546,171.776147 221.799,173.803147 221.799,173.933147 C221.799,174.085147 226.987,174.169147 236.433,174.169147 L251.068,174.169147 L252.202,171.226147 C252.826,169.608147 253.7,167.371147 254.144,166.255147 C255.415,163.063147 256.103,163.375147 247.65,163.302147 L240.348,163.238147 L240.949,161.737147 L241.55,160.235147 L247.134,160.235147 L252.718,160.235147 L254.436,155.716147 C255.38,153.231147 256.153,151.015147 256.153,150.791147 C256.153,150.422147 255.661,150.386147 250.728,150.386147 C247.744,150.386147 245.338,150.301147 245.383,150.199147 C245.427,150.096147 245.673,149.447147 245.93,148.757147 L246.398,147.503147 L253.509,147.503147 L260.62,147.503147 L262.591,142.392147 C263.675,139.581147 264.562,137.095147 264.562,136.866147 C264.562,136.478147 263.655,136.452147 250.405,136.452147 L236.248,136.452147 L235.484,138.434147 M265.042,136.948147 C265.042,137.222147 265.853,142.093147 266.844,147.774147 L268.646,158.103147 L265.643,165.896147 C263.991,170.182147 262.64,173.798147 262.64,173.932147 C262.64,174.094147 265.103,174.155147 269.897,174.113147 L277.154,174.049147 L280.167,166.331147 L283.18,158.612147 L293.09,147.840147 C298.541,141.916147 303,136.930147 303,136.760147 C303,136.516147 301.548,136.452147 296.058,136.452147 L289.116,136.452147 L285.067,141.236147 C282.84,143.868147 280.952,145.949147 280.871,145.861147 C280.79,145.773147 280.586,143.620147 280.417,141.076147 L280.111,136.452147 L272.577,136.452147 C265.12,136.452147 265.042,136.457147 265.042,136.948147 M296.694,154.913147 C292.763,165.064147 289.547,173.549147 289.547,173.769147 C289.547,174.138147 290.68,174.169147 304.141,174.165448 L318.736,174.160147 L320.724,168.939147 C321.818,166.068147 322.71,163.638147 322.706,163.539147 C322.703,163.440147 319.403,163.358147 315.373,163.358147 C311.342,163.358147 308.045,163.282147 308.045,163.188147 C308.045,163.094147 308.287,162.393147 308.583,161.630147 L309.121,160.244147 L314.742,160.180147 L320.363,160.115147 L322.13,155.551147 C323.102,153.040147 323.898,150.851147 323.899,150.686147 C323.901,150.454147 322.661,150.386147 318.496,150.386147 C312.51,150.386147 312.83,150.494147 313.555,148.704147 L313.993,147.623147 L321.138,147.503147 L328.283,147.383147 L330.288,142.217147 C331.391,139.377147 332.297,136.917147 332.301012,136.752147 C332.308,136.515147 329.308,136.452147 318.075,136.455046 L303.841,136.458147 L296.694,154.913147 M334.498,136.970147 C334.378,137.279147 331.172,145.533147 327.372,155.310147 C323.573,165.088147 320.414,173.331147 320.353,173.629147 L320.241,174.169147 L327.417,174.165147 L334.592,174.161147 L335.887,170.742147 C340.058,159.735147 339.809,159.837147 340.834,168.722147 C341.166,171.606147 341.439,174.011147 341.439,174.067147 C341.439,174.123147 344.682,174.169147 348.646,174.169147 C352.61,174.169147 355.852,174.088147 355.852,173.989147 C355.851,173.890147 355.419,170.734147 354.891,166.975147 C353.709,158.561147 353.677,159.427147 355.192,158.725147 C362.486,155.345147 366.355,144.827147 362.088,139.979147 C359.543,137.088147 357.378,136.656147 344.744,136.517147 L334.717,136.407147 L334.498,136.970147 M348.54,147.994147 C350.517,149.843147 347.511,153.392147 344.114,153.220147 L342.707,153.148147 L343.814,150.187147 L344.922,147.225147 L346.416,147.315147 C347.594,147.385147 348.043,147.529147 348.54,147.994147" id="path0"></path>
        </g>
    </g>
</svg>