<svg height="191" viewBox="0 0 398 191" width="398" xmlns="http://www.w3.org/2000/svg"><path d="m195.865 50.751147c-10.631 27.91-26.878 70.529-36.105 94.71-9.227 24.18-16.839 44.208-16.916 44.508l-.138.544 7.524-.064 7.524-.063 21.204-55.616c24.39-63.972 27.674-72.583 41.266-108.211 5.491-14.392 9.983-26.25700005 9.983-26.36600005s-3.378-.196-7.507-.19307531l-7.508.00507531zm-124.064-34.712c-.3.485-14.326 36.902-14.326 37.195 0 .471 27.038.504 27.228.034.097-.24.125-.24.14 0 .015.234 1.564.298 6.926.29l6.907-.011 1.446-2.332 1.447-2.331 5.24-.065 5.24-.065-.127.666c-.07.366-.193 1.152-.273 1.746-.08.595-.203 1.379-.272 1.742l-.127.661h7.587 7.587l.001-.541c.001-.297.649-8.692 1.441-18.655s1.44-18.206 1.44-18.318-4.15-.204-9.223-.204h-9.223l-12.907 18.511c-7.099 10.18-12.95 18.467-13.002 18.415-.053-.053.717-2.186 1.71-4.741.992-2.555 1.805-4.842 1.805-5.082 0-.41-.368-.436-6.155-.436-5.747 0-6.146-.028-6.033-.421.067-.231 2.35-6.144 5.073-13.139 2.724-6.996 4.952-12.806 4.952-12.913 0-.25-14.348-.256-14.502-.006m62.611 4.93c-2.576 6.645-2.861 5.933 2.37 5.933 4.029 0 4.344.031 4.237.42-.063.232-2.292 6.062-4.953 12.956-2.661 6.895-4.838 12.706-4.838 12.913 0 .335.813.378 7.175.378h7.175l2.16-5.586c1.189-3.072 3.501-9.071 5.138-13.33l2.977-7.745 4.574-.003 4.573-.003 2.093-5.363c1.151-2.949 2.093-5.436 2.093-5.525 0-.09-7.378-.162-16.396-.1600407l-16.396.0030407zm35.532-3.256c-.395 1.024-3.646 9.421-7.225 18.66-3.578 9.24-6.506 16.888-6.506 16.997s6.587.199 14.637.199h14.636l1.374-3.544c.756-1.949 1.629-4.184 1.94-4.966.995-2.5 1.608-2.285-6.736-2.358l-7.302-.063.601-1.502.601-1.501h5.587 5.588l1.714-4.459c2.323-6.041 2.766-5.391-3.674-5.391h-5.389l.524-1.441.524-1.442h7.11 7.11l2.079-5.371c1.144-2.955 2.079-5.441 2.079-5.526s-6.424-.154-14.276-.154h-14.277zm-55.889 15.586c-.339 2.362-.677 4.591-.75 4.954l-.133.661h-2.503c-1.377 0-2.504-.053-2.504-.117 0-.241 6.315-9.985 6.41-9.89.054.054-.18 2.031-.52 4.392m-28.112 22.443c-14.38 2.255-25.668 15.466-24.111 28.217 1.667 13.653 26.469 14.44 36.452 1.156 1.858-2.473 5.797-10.962 5.797-12.494 0-.253-1.858-.313-9.549-.313h-9.55l-1.621 4.16c-.892 2.288-1.622 4.23-1.622 4.316s1.148.187 2.551.224l2.55.068-.685.685c-2.423 2.419-7.354 2.519-8.916.181-1.492-2.234.386-8.458 3.694-12.24 3.201-3.659 8.974-3.767 8.974-.168v1.092h7.188 7.188l.171-1.596c.757-7.066-1.934-11.131-8.506-12.852-2.129-.557-7.687-.8-10.005-.436m-71.693 1.01c-10.919 28.104-14.04 36.196-14.135 36.64l-.115.545 6.452-.064 6.453-.064 3.599-9.296c1.98-5.113 3.631-9.265 3.669-9.226.039.038.66 3.897 1.381 8.575s1.374 8.859 1.45 9.29l.139.785 6.76-.064 6.759-.064 7.048-18.138c3.877-9.976 7.114-18.437 7.194-18.803l.146-.665-6.414.064-6.413.064-2.886 7.448c-1.586 4.096-2.96 7.525-3.051 7.62-.092.096-.525-3.093-.964-7.087-.439-3.993-.849-7.449-.912-7.68-.106-.39-.696-.421-8.033-.421h-7.917zm32.199 17.729c-3.884 10.044-7.113 18.531-7.176 18.859l-.114.596 7.255-.063 7.255-.064 2.751-7.087c9.996-25.757 11.625-29.995 11.625-30.239 0-.196-2.014-.271-7.267-.2680863l-7.267.0040863zm66.061-17.729c-.115.297-3.355 8.66-7.201 18.585-3.847 9.924-6.994 18.167-6.994 18.316 0 .378 14.083.317 14.391-.061.118-.145 1.32-3.128 2.671-6.63 1.351-3.501 2.509-6.501 2.573-6.667.087-.223 1.144-.3 4.145-.3h4.027l-2.505 6.509c-1.378 3.58-2.471 6.688-2.428 6.907.094.486 13.722.641 14.121.161.249-.3 14.417-36.791 14.417-37.132 0-.14-2.799-.229-7.181-.229h-7.181l-.353.901c-.194.496-1.303 3.361-2.465 6.367l-2.114 5.465h-4.061c-2.233 0-4.012-.081-3.951-.18.218-.36 4.723-12.124 4.723-12.335 0-.125-3.072-.218-7.213-.218h-7.213zm38.885.094c-.132.35-1.057 2.725-2.054 5.278-.998 2.554-1.735 4.771-1.639 4.926.127.205 1.042.247 3.322.151 1.731-.072 3.646-.061 4.257.025l1.109.157-5.013 12.972c-2.757 7.136-5.013 13.055-5.013 13.154s3.27.178 7.267.1750827l7.267-.0040827 5.045-13.107c2.775-7.209 5.153-13.197 5.285-13.307.133-.11 2.147-.156 4.477-.104 3.181.072 4.297.022 4.478-.202.28-.345 4.138-10.141 4.138-10.506 0-.161-5.49-.243-16.342-.243h-16.342zm56.516 29.816c-.557 3.666-1.012 6.751-1.010007 6.854.002007.104 1.256007.158 2.788007.12l2.785-.067 1.702-2.821c.935-1.552 1.726-2.795 1.756-2.763.031.032-.082.869-.25 1.86-.169.991-.376 2.261-.461 2.823l-.154 1.021 2.705-.008 2.706-.008 3.964-6.408c4.9-7.923 4.758-7.305 1.665-7.218l-2.454.068-1.681 2.95c-.924 1.623-1.707 2.92-1.739 2.883s.14-1.148.383-2.469c.695-3.784.851-3.484-1.809-3.484h-2.27l-1.438 2.583c-.791 1.42-1.543 2.744-1.671 2.943-.129.198-.029-.559.222-1.682.25-1.123.525-2.447.609-2.943l.154-.901h-2.744-2.744zm21.713-6.455c-.363.587-4.942 12.693-4.942 13.065 0 .395.233.427 2.668.365l2.668-.068 2.497-6.453c1.373-3.55 2.497-6.604 2.497-6.787 0-.386-5.153-.502-5.388-.122m6.289 1.556c-.886 2.365-.903 2.316.781 2.316 1.756 0 1.779-.451-.24 4.788-.925 2.4-1.682 4.467-1.682 4.593 0 .132 1.154.229 2.718.229h2.718l1.814-4.745 1.813-4.745 1.681-.07 1.68-.069.635-1.618c1.045-2.665 1.517-2.447-5.311-2.444l-5.946.002zm14.155-1.588c-.349.581-4.966 12.765-4.966 13.104 0 .361.311.41 2.629.41h2.629l.915-2.402.914-2.402 1.262-.001c.693 0 1.261.047 1.261.105 0 .057-.324.947-.721 1.976-1.094 2.843-1.177 2.724 1.896 2.724 2.271 0 2.639-.056 2.778-.421.089-.231 1.235-3.188 2.548-6.572 1.313-3.383 2.388-6.275 2.388-6.426 0-.19-.833-.274-2.703-.273l-2.703.002-.872 2.34-.872 2.341-1.23.072c-1.448.086-1.437.136-.509-2.274.396-1.029.721-2.009.721-2.177 0-.34-5.164-.461-5.365-.126m-36.703 16.05c-9.153 1.657-15.808 8.952-15.298 16.769.286 4.368 2.923 6.3 11.027 8.08 3.275.719 3.865 1.324 2.635 2.701-1.616 1.808-5.679.816-5.617-1.371l.024-.847h-6.711c-7.85 0-7.055-.406-7.055 3.603 0 6.22 3.589 9.009 12.252 9.52 11.292.666 19.997-4.542 22.238-13.305 1.757-6.871-.892-9.941-10.314-11.95-3.657-.78-4.464-1.368-3.544-2.58 1.35-1.777 4.473-1.197 4.473.831v.667h6.726c3.7 0 6.735-.081 6.744-.18.01-.099.101-1.045.204-2.102.698-7.163-3.118-10.219-12.713-10.1803684-1.784.0073684-4.066.1623684-5.071.3443684m24.685.29c-.308.499-14.329 36.884-14.329 37.185 0 .302 1.99.349 14.594.34706l14.595-.00206 1.982-5.163c1.09-2.839 1.982-5.325 1.982-5.523 0-.313-.971-.361-7.316-.361h-7.317l.565-1.501.564-1.502 5.628-.064 5.627-.064 1.725-4.509c.949-2.48 1.725-4.694 1.725-4.921 0-.377-.459-.412-5.405-.412-2.973 0-5.406-.051-5.406-.113s.265-.711.588-1.442l.587-1.328h7.054 7.053l1.969-5.129c1.083-2.821 1.969-5.254 1.969-5.406 0-.318-28.237-.41-28.434-.092m30.183.237c-.086.231-1.002 2.582-2.034 5.223-1.033 2.642-1.878 4.937-1.878 5.1 0 .223 1.106.313 4.416.362l4.416.066-5.014 12.973c-2.758 7.135-5.016 13.109-5.017 13.276-.001.24 1.525.291 7.226.241l7.227-.064 5.106-13.213 5.107-13.213 4.579-.066c3.346-.047 4.611-.144 4.697-.36 1.581-3.961 4.014-10.333 4.014-10.51 0-.487-32.662-.303-32.845.185m34.118 0c-.084.231-3.324 8.609-7.199 18.618-3.876 10.009-7.047 18.306-7.047 18.438 0 .156 2.548.241 7.189.241h7.189l1.331-3.423c.732-1.883 1.916-4.937 2.63-6.787l1.298-3.363 3.995-.066c2.198-.036 3.996-.005 3.996.071 0 .075-1.135 3.087-2.523 6.693-1.387 3.606-2.522 6.63-2.522 6.72 0 .089 3.252.134 7.226.099l7.227-.064.793-2.042c8.619-22.199 13.583-35.101 13.583-35.303 0-.171-2.32-.253-7.165-.253h-7.165l-2.246 5.826c-1.235 3.204-2.392 6.123-2.571 6.487l-.325.66h-3.984c-3.091 0-3.956-.067-3.861-.3 1.076-2.656 4.734-12.269 4.734-12.44 0-.481-14.407-.295-14.583.188m77.907 39.469c-8.733 1.374-14.563 6.353-16.162 13.804-1.313 6.12 1.281 9.07 9.645 10.965 4.322.979 5.178 1.681 3.77 3.09-1.703 1.703-5.562.687-5.562-1.464v-.939h-6.722-6.722l-.185.66c-.481 1.72-.214 5.647.481 7.061 1.772 3.609 5.28 5.197 11.984 5.426 11.581.395 19.731-4.53 21.942-13.258 1.691-6.671-1.223-10.092-10.143-11.908-3.675-.747-4.368-1.17-3.836-2.338.915-2.008 4.492-1.575 4.492.543v.841h6.716 6.716l.191-.901c1-4.714-.64-8.87-4.106-10.403-2.661-1.177-8.82-1.758-12.499-1.179m-192.659.416c-.303.49-14.329 36.896-14.329 37.192 0 .285 1.033.34 6.344.34h6.344l1.335-3.423c.734-1.883 2.37-6.072 3.636-9.309l2.302-5.886-.132 4.925c-.073 2.708-.199 6.898-.28 9.309l-.148 4.384h2.622 2.621l6.792-8.889c3.736-4.888 6.835-8.888 6.887-8.888.115 0-.276 1.039-3.825 10.17-1.532 3.942-2.786 7.266-2.786 7.387 0 .129 2.991.22 7.167.22h7.167l3.51-9.069c1.93-4.988 5.138-13.269 7.127-18.404 1.99-5.134 3.618-9.539 3.618-9.789 0-.439-.331-.455-9.189-.454l-9.19.001-5.165 7.064c-3.913 5.352-5.186 6.939-5.25 6.545-.082-.496.294-7.843.601-11.75l.147-1.861h-8.906c-4.898 0-8.957.083-9.02.185m47.885 1.797c-1.056 2.739-9.993 25.776-12.024 30.994-.914 2.348-1.661 4.375-1.661 4.505 0 .152 5.188.236 14.634.236h14.635l1.134-2.943c.624-1.618 1.498-3.855 1.942-4.971 1.271-3.192 1.959-2.88-6.494-2.953l-7.302-.064.601-1.501.601-1.502h5.584 5.584l1.718-4.519c.944-2.485 1.717-4.701 1.717-4.925 0-.369-.492-.405-5.425-.405-2.984 0-5.39-.085-5.345-.187.044-.103.29-.752.547-1.442l.468-1.254h7.111 7.111l1.971-5.111c1.084-2.811 1.971-5.297 1.971-5.526 0-.388-.907-.414-14.157-.414h-14.157zm29.558-1.486c0 .274.811 5.145 1.802 10.826l1.802 10.329-3.003 7.793c-1.652 4.286-3.003 7.902-3.003 8.036 0 .162 2.463.223 7.257.181l7.257-.064 3.013-7.718 3.013-7.719 9.91-10.772c5.451-5.924 9.91-10.91 9.91-11.08 0-.244-1.452-.308-6.942-.308h-6.942l-4.049 4.784c-2.227 2.632-4.115 4.713-4.196 4.625s-.285-2.241-.454-4.785l-.306-4.624h-7.534c-7.457 0-7.535.005-7.535.496m31.652 17.965c-3.931 10.151-7.147 18.636-7.147 18.856 0 .369 1.133.4 14.594.396301l14.595-.005301 1.988-5.221c1.094-2.871 1.986-5.301 1.982-5.4-.003-.099-3.303-.181-7.333-.181-4.031 0-7.328-.076-7.328-.17s.242-.795.538-1.558l.538-1.386 5.621-.064 5.621-.065 1.767-4.564c.972-2.511 1.768-4.7 1.769-4.865.002-.232-1.238-.3-5.403-.3-5.986 0-5.666.108-4.941-1.682l.438-1.081 7.145-.12 7.145-.12 2.005-5.166c1.103-2.84 2.009-5.3 2.013012-5.465.006988-.237-2.993012-.3-14.226012-.297101l-14.234.003101zm37.804-17.943c-.12.309-3.326 8.563-7.126 18.34-3.799 9.778-6.958 18.021-7.019 18.319l-.112.54 7.176-.004 7.175-.004 1.295-3.419c4.171-11.007 3.922-10.905 4.947-2.02.332 2.884.605 5.289.605 5.345s3.243.102 7.207.102 7.206-.081 7.206-.18c-.001-.099-.433-3.255-.961-7.014-1.182-8.414-1.214-7.548.301-8.25 7.294-3.38 11.163-13.898 6.896-18.746-2.545-2.891-4.71-3.323-17.344-3.462l-10.027-.11zm14.042 11.024c1.977 1.849-1.029 5.398-4.426 5.226l-1.407-.072 1.107-2.961 1.108-2.962 1.494.09c1.178.07 1.627.214 2.124.679" fill="#fff" fill-rule="evenodd" transform="translate(.144 .127853)"/></svg>