<svg height="468" viewBox="0 0 1438 468" width="1438" xmlns="http://www.w3.org/2000/svg"><g fill="#fff" transform="translate(.009826 .950498)"><path d="m991.560174 324.959502h14.349996v-87.84h36.42v226h-36.12v-97.52c-4.85-1.07-9.219996-.58-14.279996-.38v97.67h-37.32v-225.88h37z"/><path d="m742.830174 333.909502v129h-31.43v-225.79h35.26l19.61 118.67h.76v-118.6h31.8v225.66h-32.45l-22.41-129z"/><path d="m265.110174 2.28950191h36.48c1.15 1.7.57 3.58.57 5.33.04 58.82666669.04 117.65666709 0 176.49000009 0 3 .06 6 1.22 8.83.93273 2.818268 3.767007 4.548447 6.7 4.09 3.38-.37 5.53-2.36 6-5.66.285644-2.990929.379169-5.997099.28-9 0-58.666667 0-117.3333334 0-176.00000009v-4h37.19c1.06 1.12.55 2.52.55 3.78 0 60.82999999.18 121.66000009-.09 182.49000009-.07 14.77-4.2 28.28-17.74 36.84-5.581496 3.675429-12.117047 5.636094-18.8 5.64-8.75-.09-17.51 1-26.23-1.56-14.82-4.27-22.36-14.47-25.09-29-.850462-5.090727-1.222086-10.24994-1.11-15.41.053333-58.993333.053333-117.9933334 0-177.00000009z"/><path d="m461.270174 228.999502v-226.79000009c19.31 0 38.42-.18 57.53.14 4.315266.15745481 8.555303 1.17751179 12.47 3 9.37 4.19 13.82 11.93999999 15.79 21.46999999.891073 5.0789321 1.256336 10.2361766 1.09 15.39-.053334 50.1333333-.053334 100.2666671 0 150.4000001.068891 6.456938-1.165744 12.861396-3.63 18.83-4.87 11.54-14.4 17-26.21 17.4-18.95.63-37.9.16-57.04.16zm35.84-32.15c11.87.59 14-1.39 14-12.62 0-12.486667 0-24.976667 0-37.47 0-34.666667 0-69.3033334 0-103.9100001 0-4.23-.6-8.29-5.33-9.49-2.861672-.6823935-5.848262-.6411518-8.69.12z"/><path d="m943.980174 316.589502h-36.26c0-6.95 0-13.54 0-20.14 0-6 0-12 0-18 .164033-2.505698-.292805-5.013156-1.33-7.3-1.46-2.76-3.81-4.38-6.87-3.91s-4.74 2.87-5.26 5.86c-.169376 1.490358-.212863 2.992339-.13 4.49v143.94 3c.35 4.72 4.14 8.77 8.05 8.63 3.63-.12 7.78-4.21 7.81-8.41.12-21.47.06-42.94.06-64.75l-9.39-.6v-31.76h44.8v135.23h-23.27c-3.1-3.77-1.41-9.61-4.95-13.46-1.85-.08-2.49 1.39-3.37 2.56-9.25 12.4-20.66 16.66-34.8 13-11.05-2.87-20.13-14.62-22-28.22-.669484-5.108732-.983572-10.257772-.94-15.41.033333-48 .033333-95.98 0-143.94-.088291-6.982617 1.13629-13.919648 3.61-20.45 5.11-13.07 15.19-19.77 28.6-21.71 9.27-1.34 18.64-.67 27.93.08 10.36.84 21.86 11.71 25.39 22.87 1.697037 5.553294 2.480578 11.345414 2.32 17.15-.15 12 0 24 0 36z"/><path d="m400.390174 128.769502v100h-36.1v-226.00000009c.92-1.13 2.36-.55 3.6-.55 18.16-.04 36.32-.04 54.48 0 17 0 27.51 10.06999999 27.74 26.92999999.25 18 .17 36 0 54-.09 10.85-4 17.4900001-13.31 23.5600001.43.47.75 1.05 1.25 1.32 9 4.89 12.54 12.63 12.49 22.62-.13 25.32-.05 50.65 0 76 0 7.44-.53 14.94 2.92 22.3h-36.35c-2.92-4-2.85-9.08-2.87-13.94-.11-25 0-50-.06-75-.01-10.78-2.27-12.69-13.79-11.24zm.21-32.6800001c9 1.73 13.35-.45 13.43-7.07.21-16.95.09-33.89.06-50.84 0-3.92-2-6.19-6-6.5-2.44-.19-4.92-.71-7.5.45z"/><path d="m.11017382 139.349502h35.10999998v45c0 2-.09 4 .06 6 .52 6.93 2.88 9 9.78 8.65 3.92-1.61 4.64-5.19 4.69-8.67.1533333-12.326667.1233333-24.66-.09-37-.11-6.41-3-11.83-7.3-16.46-8.69-9.41-17.62-18.59-26.19-28.1-10.17793624-10.9592329-15.6406421-25.4797587-15.20999998-40.4300001.16-9.5.24-19 0-28.5-.71-26.5 13.44999998-38.36999999 37.85999998-39.62999999 9.17-.47000001 18.43-.33000001 27.22 2.34 12.92 3.92 19.89 14.15999999 20.07 28.72999999.2 16 0 32 0 48.32h-34.3c-1.14-1.45-.59-3.18-.59-4.77-.0533333-12.5-.0533333-25 0-37.5 0-4.21-1.39-7.22-5.93-7.7-4.75-.51-7.19 2-7.45 6.56-.69 11.79-1.4 23.64.6 35.34 1.12 6.55 5.83 11.35 10.21 16.1 8.47 9.17 17.64 17.6700001 25.86 27.1000001 9.25 10.62 13.52 22.95 13.62 36.85.09 12.67.11 25.33 0 38-.0534508 6.464924-1.3080924 12.863596-3.7 18.87-4.92 12.34-14.32 19.12-27.07 21.48-11.3254046 2.091104-22.9677715 1.726214-34.14-1.07-13.24999998-3.27-22.70999998-15.25-22.99999998-29.69-.42-19.77-.11-39.6-.11-59.82z"/><path d="m1326.28017 2.35950191h34.73l-23.39 226.50000009h-47.37l-24.94-226.42000009h38.47l10.67 162.00000009h1z"/><path d="m575.040174 2.27950191h45.22l24 226.44000009h-35.3c-1.49-13.5-1.27-27.29-3.25-41.19h-18.24l-3.22 41.39h-31.41zm28.68 152.00000009-6.24-88.8400001h-1.54l-6.43 88.7900001z"/><path d="m149.600174 228.849502-2.72-41.2h-18.77l-3.19 41.17h-31.3500002l22.1900002-226.49000009h45.23l24 226.52000009zm-5.15-74.57-6.25-89.0800001h-1.53l-6.44 89.05:00001z"/><path d="m1366.85017 228.789502v-226.26000009h69.34v33.58999999h-33.73v56.87h27.32v35.0000001h-27.32v66.13h35v34.68z"/><path d="m721.110174 2.28950191c-6.94 36.45999999-13.68 72.53999999-20.74 108.57000009-3.39 17.32-5.61 34.63-5.12 52.37.57 20.31.13 40.65.14 61v4.63h-35.8c-1.13-1.52-.5-3.41-.5-5.15 0-23.66-.34-47.33.1-71 .23-12.1-1.7-23.75-4.13-35.47-5.44-26.2000001-10.7-52.4300001-16-78.6600001-2.43-12-4.81-23.94-7.27-36.19999999h35.67l9.7 79.30999999 1.43.17c4.22-26.38 6.57-53 10.18-79.56999999z"/><path d="m1073.67017 270.829502h-22v-33.78h80.15v33.78h-21.52v192h-36.67z"/><path d="m234.420174 35.8895019v192.9200001h-35.62v-192.6000001h-21.85v-33.83999999h79.26v33.51999999z"/><path d="m1182.05017 193.589502h31.06v35.23h-66.87v-226.41000009h35.81z"/><path d="m1222.60017 2.29950191h36.1v226.55000009h-36.1z"/><path d="m845.530174 462.929502c-1.09.08-1.91.2-2.72.2h-33.35v-226.01h36.07z"/></g></svg>