<svg height="81" viewBox="0 0 81 81" width="81" xmlns="http://www.w3.org/2000/svg"><g fill="none" transform="translate(1 1)"><path d="m39.547 0c21.84 0 39.546 17.705 39.546 39.546s-17.706 39.547-39.546 39.547c-21.842 0-39.547-17.706-39.547-39.547s17.705-39.546 39.547-39.546" stroke="#fff"/><g fill="#fff"><path d="m26.06 22.257v-10.988h-2.374v4.329h-3.662v-4.329h-2.373v10.988h2.373v-4.373h3.662v4.373z"/><path d="m38.615 34.552 3.144 10.989h2.383l1.824-7.216 1.842 7.216h2.347l3.084-10.989h-2.572l-1.658 7.175-1.884-7.175h-2.307l-1.879 7.206-1.69-7.206z"/><path d="m38.83 22.91h2.375v10.988h-2.375z"/><path d="m53.269 68.969c3.103 0 5.626-2.53 5.626-5.64s-2.523-5.64-5.626-5.64c-3.093 0-5.6100003 2.529-5.6100003 5.64-.0009997 3.109 2.5170003 5.64 5.6100003 5.64zm0-8.936c1.801 0 3.267 1.479 3.267 3.296s-1.466 3.296-3.267 3.296c-1.793 0-3.252-1.479-3.252-3.296s1.459-3.296 3.252-3.296z"/><path d="m34.718 13.555v-2.286h-7.201v10.988h7.201v-2.286h-4.828v-2.087h3.645v-2.286h-3.645v-2.043z"/><path d="m30.854 26.936 4.093 6.962h2.427v-10.988h-2.374v6.731l-3.946-6.731h-2.573v10.988h2.373z"/><path d="m12.192 48.728c-.271 0-.516-.15-.684-.391l-.543.403c.275.311.682.542 1.23.542.672 0 1.057-.467 1.057-.951 0-.585-.468-.769-.882-.902-.325-.108-.618-.188-.618-.422 0-.192.146-.338.418-.338.237 0 .418.101.543.288l.47-.375c-.244-.249-.527-.431-1.018-.431-.588 0-1.014.389-1.014.877 0 .585.455.743.864.868.326.101.631.18.631.43.001.209-.157.402-.454.402z"/><path d="m14.646 49.241v-2.493h.771v-.555h-2.122v.555h.77v2.493z"/><path d="m68.591 33.898v-8.702h2.607v-2.286h-7.588v2.286h2.607v8.702z"/><path d="m48.074 66.537h-3.586v-8.702h-2.373v10.988h5.959z"/><path d="m66.216 52.057v5.125h2.375v-5.125l3.556-5.864h-2.594l-2.142 3.494-2.127-3.494h-2.595z"/><path d="m54.342 22.91v10.988h2.373v-4.373h3.662v4.373h2.373v-10.988h-2.373v4.329h-3.662v-4.329z"/><path d="m47.86 25.08c1.292 0 2.229.556 2.866 1.697l2.034-1.325c-1.01-1.686-2.835-2.688-4.915-2.688-3.316 0-5.699 2.425-5.699 5.64s2.421 5.64 5.787 5.64c3.184 0 5.466-2.361 5.466-5.493v-.946h-5.466v2.242h2.833c-.42 1.18-1.393 1.882-2.833 1.882-2.022 0-3.428-1.429-3.428-3.324.001-1.834 1.436-3.325 3.355-3.325z"/><path d="m16.603 44.608c.655-.646 1.016-1.417 1.016-2.331 0-2.281-1.973-3.014-3.296-3.436-1.137-.363-1.937-.639-1.937-1.273 0-.622.492-1.008 1.284-1.008.729 0 1.592.445 2.017 1.036l1.815-1.452c-.961-1.01-1.944-1.738-3.847-1.738-2.119 0-3.717 1.39-3.717 3.234 0 2.236 1.781 2.783 3.227 3.225 1.086.331 1.992.696 1.992 1.396 0 .666-.442 1.227-1.415 1.227-.873 0-1.922-.667-2.457-1.466l-1.948 1.557c1.116 1.383 2.692 2.107002 4.42 2.107002 1.146.000998 2.13-.373002 2.846-1.078002z"/><path d="m50.028 57.182v-10.989h-2.265l-3.058 4.356-3.034-4.356h-2.28v10.989h2.364v-6.978l2.933 4.05 2.976-4.095v7.023z"/><path d="m51.485 46.193v10.989h2.363v-6.978l2.933 4.05 2.977-4.095v7.023h2.364v-10.989h-2.265l-3.058 4.356-3.034-4.356z"/><path d="m41.52 66.537h-3.587v-8.702h-2.373v10.988h5.96z"/><path d="m21.045 64.45h3.644v-2.286h-3.644v-2.043h4.828v-2.286h-7.202v10.988h2.374z"/><path d="m9.742 13.555h2.067v8.702h2.374v-8.702h2.607v-2.286h-4.887c-.749.733-1.47 1.495-2.161 2.286z"/><path d="m25.064 47.124 1.176 2.117h.618v-3.048h-.581v2.05l-1.132-2.05h-.66v3.048h.579z"/><path d="m30.376 57.327c2.4 0 3.727-1.32 3.727-3.645v-7.489h-2.374v7.489c0 .944-.546 1.447-1.366 1.447-.843 0-1.354-.458-1.712-1.353l-2.092 1.124c.801 1.641 2.151 2.427 3.817 2.427z"/><path d="m27.527 66.884h4.234l.706 1.939h2.483l-4.164-10.988h-2.285l-4.164 10.988h2.483zm2.118-5.811 1.3 3.568h-2.6z"/><path d="m38.949 40.046c0-3.11-2.524-5.64-5.626-5.64-3.094 0-5.611 2.529-5.611 5.64s2.518 5.641 5.611 5.641c3.102 0 5.626-2.531 5.626-5.641zm-5.603 3.296c-1.794 0-3.252-1.479-3.252-3.296s1.458-3.296 3.252-3.296c1.8 0 3.266 1.479 3.266 3.296s-1.466 3.296-3.266 3.296z"/><path d="m68.591 66.382v-8.547h-2.374v6.73l-3.883-6.71-.013-.021h-2.573v10.988h2.374v-6.964l4.06 6.918c.837-.762 1.639-1.562 2.409-2.394z"/><path d="m35.56 46.193h2.374v10.988h-2.374z"/><path d="m18.662 48.168h.354l.587 1.073h.663l-.693-1.206c.405-.155.59-.482.59-.862 0-.576-.422-.979-1.124-.979h-.956v3.048h.58v-1.074zm0-1.433h.31c.438 0 .605.132.605.438 0 .216-.155.474-.605.474h-.31z"/><path d="m22.001 34.044c3.103 0 5.626-2.529 5.626-5.64s-2.523-5.64-5.626-5.64c-3.094 0-5.61 2.529-5.61 5.64s2.516 5.64 5.61 5.64zm0-8.935c1.802 0 3.267 1.479 3.267 3.295 0 1.817-1.465 3.296-3.267 3.296-1.793 0-3.252-1.479-3.252-3.296 0-1.816 1.459-3.295 3.252-3.295z"/><path d="m15.855 48.711h1.169l.184.53h.606l-1.082-3.048h-.585l-1.082 3.048h.606zm.585-1.691.393 1.136h-.785z"/><path d="m11.81 33.898h2.374v-8.702h2.607v-2.286h-7.589v2.286h2.608z"/><path d="m22.764 47.173c0-.576-.422-.979-1.124-.979h-.956v3.048h.58v-1.073h.354l.586 1.073h.664l-.693-1.206c.404-.156.589-.483.589-.863zm-1.191.473h-.31v-.911h.31c.438 0 .605.132.605.438.001.216-.154.473-.605.473z"/><path d="m23.308 46.193h1v3.048h-1z"/><path d="m28.88 46.715c.396 0 .685.18.873.526l.5-.325c-.262-.451-.75-.765-1.377-.765-.902 0-1.558.697-1.558 1.565 0 .844.631 1.565 1.582 1.565.907 0 1.491-.705 1.491-1.523v-.233h-1.491v.555h.865c-.108.389-.422.64-.865.64-.585 0-1.006-.443-1.006-1.003.001-.547.43-1.002.986-1.002z"/><path d="m24.485 45.541h2.373v-10.989h-2.373v4.329h-3.662v-4.329h-2.373v10.989h2.373v-4.374h3.662z"/></g></g></svg>